<svg xmlns="http://www.w3.org/2000/svg" width="1200" height="760" viewBox="0 0 1200 760">
  <defs>
    <style>
      .title { font: 700 28px 'Segoe UI', Arial, sans-serif; fill: #1f2937; }
      .label { font: 600 18px 'Segoe UI', Arial, sans-serif; fill: #111827; }
      .text { font: 16px 'Segoe UI', Arial, sans-serif; fill: #111827; }
      .small { font: 14px 'Segoe UI', Arial, sans-serif; fill: #374151; }
      .box { fill: #f8fafc; stroke: #334155; stroke-width: 2; }
      .ellipse { fill: #ffffff; stroke: #0f172a; stroke-width: 2; }
      .line { stroke: #0f172a; stroke-width: 2; fill: none; }
      .note { fill: #fef3c7; stroke: #92400e; stroke-width: 1.5; }
    </style>
  </defs>

  <rect x="0" y="0" width="1200" height="760" fill="#ffffff"/>
  <text x="600" y="46" text-anchor="middle" class="title">Use Case Diagram - Paint App</text>

  <rect x="275" y="90" width="690" height="560" rx="10" class="box"/>
  <text x="620" y="122" text-anchor="middle" class="label">System Boundary: Paint App</text>

  <circle cx="110" cy="180" r="24" fill="none" stroke="#111827" stroke-width="2"/>
  <line x1="110" y1="204" x2="110" y2="285" class="line"/>
  <line x1="72" y1="230" x2="148" y2="230" class="line"/>
  <line x1="110" y1="285" x2="78" y2="340" class="line"/>
  <line x1="110" y1="285" x2="142" y2="340" class="line"/>
  <text x="110" y="372" text-anchor="middle" class="label">Utilizator</text>

  <circle cx="1085" cy="420" r="24" fill="none" stroke="#111827" stroke-width="2"/>
  <line x1="1085" y1="444" x2="1085" y2="525" class="line"/>
  <line x1="1047" y1="470" x2="1123" y2="470" class="line"/>
  <line x1="1085" y1="525" x2="1053" y2="580" class="line"/>
  <line x1="1085" y1="525" x2="1117" y2="580" class="line"/>
  <text x="1085" y="612" text-anchor="middle" class="label">Sistem de fisiere</text>

  <ellipse cx="620" cy="180" rx="165" ry="44" class="ellipse"/>
  <text x="620" y="186" text-anchor="middle" class="text">Selecteaza instrument</text>

  <ellipse cx="620" cy="280" rx="175" ry="46" class="ellipse"/>
  <text x="620" y="286" text-anchor="middle" class="text">Deseneaza pe canvas</text>

  <ellipse cx="620" cy="385" rx="200" ry="46" class="ellipse"/>
  <text x="620" y="378" text-anchor="middle" class="text">Alege culoare</text>
  <text x="620" y="398" text-anchor="middle" class="text">si grosime linie</text>

  <ellipse cx="620" cy="490" rx="165" ry="44" class="ellipse"/>
  <text x="620" y="496" text-anchor="middle" class="text">Salveaza imaginea</text>

  <ellipse cx="620" cy="590" rx="130" ry="42" class="ellipse"/>
  <text x="620" y="596" text-anchor="middle" class="text">Undo / Redo</text>

  <line x1="148" y1="230" x2="455" y2="180" class="line"/>
  <line x1="148" y1="240" x2="445" y2="280" class="line"/>
  <line x1="148" y1="250" x2="420" y2="385" class="line"/>
  <line x1="148" y1="260" x2="455" y2="490" class="line"/>
  <line x1="138" y1="270" x2="490" y2="590" class="line"/>

  <line x1="785" y1="490" x2="1047" y2="470" class="line"/>

  <line x1="620" y1="326" x2="620" y2="341" stroke="#6b7280" stroke-width="1.5" stroke-dasharray="6 6"/>
  <text x="634" y="337" class="small">&lt;&lt;optional&gt;&gt;</text>

  <rect x="320" y="670" width="560" height="58" rx="8" class="note"/>
  <text x="600" y="695" text-anchor="middle" class="small">Covered requirements: REQ-1, REQ-2, REQ-3, REQ-4, REQ-5, REQ-6</text>
  <text x="600" y="715" text-anchor="middle" class="small">The user interacts with the canvas, tools, history, and file saving.</text>
</svg>
